<mxfile host="app.diagrams.net" agent="Mozilla/5.0 (Macintosh; Intel Mac OS X 10_15_7) AppleWebKit/537.36 (KHTML, like Gecko) Chrome/130.0.0.0 Safari/537.36" version="24.8.3">
  <diagram name="Page-1" id="hTv821qGeieAgUySZ9zO">
    <mxGraphModel dx="395" dy="720" grid="1" gridSize="10" guides="1" tooltips="1" connect="1" arrows="1" fold="1" page="1" pageScale="1" pageWidth="827" pageHeight="1169" math="0" shadow="0">
      <root>
        <mxCell id="0" />
        <mxCell id="1" parent="0" />
        <mxCell id="b-gevr_9jymBoINEgI2s-1" value="Evenement" style="swimlane;fontStyle=0;align=center;verticalAlign=top;childLayout=stackLayout;horizontal=1;startSize=55;horizontalStack=0;resizeParent=1;resizeParentMax=0;resizeLast=0;collapsible=0;marginBottom=0;html=1;whiteSpace=wrap;fillColor=#dae8fc;strokeColor=#6c8ebf;" parent="1" vertex="1">
          <mxGeometry x="90" y="120" width="140" height="223" as="geometry" />
        </mxCell>
        <mxCell id="b-gevr_9jymBoINEgI2s-3" value="+evenement_id" style="text;html=1;strokeColor=none;fillColor=none;align=left;verticalAlign=middle;spacingLeft=4;spacingRight=4;overflow=hidden;rotatable=0;points=[[0,0.5],[1,0.5]];portConstraint=eastwest;whiteSpace=wrap;" parent="b-gevr_9jymBoINEgI2s-1" vertex="1">
          <mxGeometry y="55" width="140" height="20" as="geometry" />
        </mxCell>
        <mxCell id="b-gevr_9jymBoINEgI2s-9" value="+no_evenement" style="text;html=1;strokeColor=none;fillColor=none;align=left;verticalAlign=middle;spacingLeft=4;spacingRight=4;overflow=hidden;rotatable=0;points=[[0,0.5],[1,0.5]];portConstraint=eastwest;whiteSpace=wrap;" parent="b-gevr_9jymBoINEgI2s-1" vertex="1">
          <mxGeometry y="75" width="140" height="20" as="geometry" />
        </mxCell>
        <mxCell id="b-gevr_9jymBoINEgI2s-14" value="+nom" style="text;html=1;strokeColor=none;fillColor=none;align=left;verticalAlign=middle;spacingLeft=4;spacingRight=4;overflow=hidden;rotatable=0;points=[[0,0.5],[1,0.5]];portConstraint=eastwest;whiteSpace=wrap;" parent="b-gevr_9jymBoINEgI2s-1" vertex="1">
          <mxGeometry y="95" width="140" height="20" as="geometry" />
        </mxCell>
        <mxCell id="b-gevr_9jymBoINEgI2s-15" value="+description" style="text;html=1;strokeColor=none;fillColor=none;align=left;verticalAlign=middle;spacingLeft=4;spacingRight=4;overflow=hidden;rotatable=0;points=[[0,0.5],[1,0.5]];portConstraint=eastwest;whiteSpace=wrap;" parent="b-gevr_9jymBoINEgI2s-1" vertex="1">
          <mxGeometry y="115" width="140" height="20" as="geometry" />
        </mxCell>
        <mxCell id="b-gevr_9jymBoINEgI2s-10" value="+annee" style="text;html=1;strokeColor=none;fillColor=none;align=left;verticalAlign=middle;spacingLeft=4;spacingRight=4;overflow=hidden;rotatable=0;points=[[0,0.5],[1,0.5]];portConstraint=eastwest;whiteSpace=wrap;" parent="b-gevr_9jymBoINEgI2s-1" vertex="1">
          <mxGeometry y="135" width="140" height="20" as="geometry" />
        </mxCell>
        <mxCell id="b-gevr_9jymBoINEgI2s-11" value="+date_debut" style="text;html=1;strokeColor=none;fillColor=none;align=left;verticalAlign=middle;spacingLeft=4;spacingRight=4;overflow=hidden;rotatable=0;points=[[0,0.5],[1,0.5]];portConstraint=eastwest;whiteSpace=wrap;" parent="b-gevr_9jymBoINEgI2s-1" vertex="1">
          <mxGeometry y="155" width="140" height="20" as="geometry" />
        </mxCell>
        <mxCell id="b-gevr_9jymBoINEgI2s-12" value="+date_fin" style="text;html=1;strokeColor=none;fillColor=none;align=left;verticalAlign=middle;spacingLeft=4;spacingRight=4;overflow=hidden;rotatable=0;points=[[0,0.5],[1,0.5]];portConstraint=eastwest;whiteSpace=wrap;" parent="b-gevr_9jymBoINEgI2s-1" vertex="1">
          <mxGeometry y="175" width="140" height="20" as="geometry" />
        </mxCell>
        <mxCell id="b-gevr_9jymBoINEgI2s-13" value="+pays" style="text;html=1;strokeColor=none;fillColor=none;align=left;verticalAlign=middle;spacingLeft=4;spacingRight=4;overflow=hidden;rotatable=0;points=[[0,0.5],[1,0.5]];portConstraint=eastwest;whiteSpace=wrap;" parent="b-gevr_9jymBoINEgI2s-1" vertex="1">
          <mxGeometry y="195" width="140" height="20" as="geometry" />
        </mxCell>
        <mxCell id="b-gevr_9jymBoINEgI2s-6" value="" style="line;strokeWidth=1;fillColor=none;align=left;verticalAlign=middle;spacingTop=-1;spacingLeft=3;spacingRight=3;rotatable=0;labelPosition=right;points=[];portConstraint=eastwest;" parent="b-gevr_9jymBoINEgI2s-1" vertex="1">
          <mxGeometry y="215" width="140" height="8" as="geometry" />
        </mxCell>
        <mxCell id="b-gevr_9jymBoINEgI2s-17" value="Competition" style="swimlane;fontStyle=0;align=center;verticalAlign=top;childLayout=stackLayout;horizontal=1;startSize=55;horizontalStack=0;resizeParent=1;resizeParentMax=0;resizeLast=0;collapsible=0;marginBottom=0;html=1;whiteSpace=wrap;fillColor=#dae8fc;strokeColor=#6c8ebf;" parent="1" vertex="1">
          <mxGeometry x="90" y="408.5" width="140" height="263" as="geometry" />
        </mxCell>
        <mxCell id="b-gevr_9jymBoINEgI2s-18" value="+competition_id" style="text;html=1;strokeColor=none;fillColor=none;align=left;verticalAlign=middle;spacingLeft=4;spacingRight=4;overflow=hidden;rotatable=0;points=[[0,0.5],[1,0.5]];portConstraint=eastwest;whiteSpace=wrap;" parent="b-gevr_9jymBoINEgI2s-17" vertex="1">
          <mxGeometry y="55" width="140" height="20" as="geometry" />
        </mxCell>
        <mxCell id="b-gevr_9jymBoINEgI2s-22" value="+evenement_id" style="text;html=1;strokeColor=none;fillColor=none;align=left;verticalAlign=middle;spacingLeft=4;spacingRight=4;overflow=hidden;rotatable=0;points=[[0,0.5],[1,0.5]];portConstraint=eastwest;whiteSpace=wrap;" parent="b-gevr_9jymBoINEgI2s-17" vertex="1">
          <mxGeometry y="75" width="140" height="20" as="geometry" />
        </mxCell>
        <mxCell id="b-gevr_9jymBoINEgI2s-25" value="+stade_id" style="text;html=1;strokeColor=none;fillColor=none;align=left;verticalAlign=middle;spacingLeft=4;spacingRight=4;overflow=hidden;rotatable=0;points=[[0,0.5],[1,0.5]];portConstraint=eastwest;whiteSpace=wrap;" parent="b-gevr_9jymBoINEgI2s-17" vertex="1">
          <mxGeometry y="95" width="140" height="20" as="geometry" />
        </mxCell>
        <mxCell id="4GFgZBNCq6pFYaqC6Dh2-12" value="+categorie" style="text;html=1;strokeColor=none;fillColor=none;align=left;verticalAlign=middle;spacingLeft=4;spacingRight=4;overflow=hidden;rotatable=0;points=[[0,0.5],[1,0.5]];portConstraint=eastwest;whiteSpace=wrap;" parent="b-gevr_9jymBoINEgI2s-17" vertex="1">
          <mxGeometry y="115" width="140" height="20" as="geometry" />
        </mxCell>
        <mxCell id="b-gevr_9jymBoINEgI2s-19" value="+jeu" style="text;html=1;strokeColor=none;fillColor=none;align=left;verticalAlign=middle;spacingLeft=4;spacingRight=4;overflow=hidden;rotatable=0;points=[[0,0.5],[1,0.5]];portConstraint=eastwest;whiteSpace=wrap;" parent="b-gevr_9jymBoINEgI2s-17" vertex="1">
          <mxGeometry y="135" width="140" height="20" as="geometry" />
        </mxCell>
        <mxCell id="b-gevr_9jymBoINEgI2s-20" value="+date_heure_debut" style="text;html=1;strokeColor=none;fillColor=none;align=left;verticalAlign=middle;spacingLeft=4;spacingRight=4;overflow=hidden;rotatable=0;points=[[0,0.5],[1,0.5]];portConstraint=eastwest;whiteSpace=wrap;" parent="b-gevr_9jymBoINEgI2s-17" vertex="1">
          <mxGeometry y="155" width="140" height="20" as="geometry" />
        </mxCell>
        <mxCell id="b-gevr_9jymBoINEgI2s-21" value="+date_heure_fin" style="text;html=1;strokeColor=none;fillColor=none;align=left;verticalAlign=middle;spacingLeft=4;spacingRight=4;overflow=hidden;rotatable=0;points=[[0,0.5],[1,0.5]];portConstraint=eastwest;whiteSpace=wrap;" parent="b-gevr_9jymBoINEgI2s-17" vertex="1">
          <mxGeometry y="175" width="140" height="20" as="geometry" />
        </mxCell>
        <mxCell id="b-gevr_9jymBoINEgI2s-23" value="+athletes" style="text;html=1;strokeColor=none;fillColor=none;align=left;verticalAlign=middle;spacingLeft=4;spacingRight=4;overflow=hidden;rotatable=0;points=[[0,0.5],[1,0.5]];portConstraint=eastwest;whiteSpace=wrap;" parent="b-gevr_9jymBoINEgI2s-17" vertex="1">
          <mxGeometry y="195" width="140" height="20" as="geometry" />
        </mxCell>
        <mxCell id="b-gevr_9jymBoINEgI2s-24" value="+officiers" style="text;html=1;strokeColor=none;fillColor=none;align=left;verticalAlign=middle;spacingLeft=4;spacingRight=4;overflow=hidden;rotatable=0;points=[[0,0.5],[1,0.5]];portConstraint=eastwest;whiteSpace=wrap;" parent="b-gevr_9jymBoINEgI2s-17" vertex="1">
          <mxGeometry y="215" width="140" height="20" as="geometry" />
        </mxCell>
        <mxCell id="4GFgZBNCq6pFYaqC6Dh2-11" value="+medailles" style="text;html=1;strokeColor=none;fillColor=none;align=left;verticalAlign=middle;spacingLeft=4;spacingRight=4;overflow=hidden;rotatable=0;points=[[0,0.5],[1,0.5]];portConstraint=eastwest;whiteSpace=wrap;" parent="b-gevr_9jymBoINEgI2s-17" vertex="1">
          <mxGeometry y="235" width="140" height="20" as="geometry" />
        </mxCell>
        <mxCell id="b-gevr_9jymBoINEgI2s-26" value="" style="line;strokeWidth=1;fillColor=none;align=left;verticalAlign=middle;spacingTop=-1;spacingLeft=3;spacingRight=3;rotatable=0;labelPosition=right;points=[];portConstraint=eastwest;" parent="b-gevr_9jymBoINEgI2s-17" vertex="1">
          <mxGeometry y="255" width="140" height="8" as="geometry" />
        </mxCell>
        <mxCell id="4GFgZBNCq6pFYaqC6Dh2-1" value="Athlete" style="swimlane;fontStyle=0;align=center;verticalAlign=top;childLayout=stackLayout;horizontal=1;startSize=55;horizontalStack=0;resizeParent=1;resizeParentMax=0;resizeLast=0;collapsible=0;marginBottom=0;html=1;whiteSpace=wrap;fillColor=#dae8fc;strokeColor=#6c8ebf;" parent="1" vertex="1">
          <mxGeometry x="90" y="750" width="140" height="223" as="geometry" />
        </mxCell>
        <mxCell id="4GFgZBNCq6pFYaqC6Dh2-2" value="+athlete_id" style="text;html=1;strokeColor=none;fillColor=none;align=left;verticalAlign=middle;spacingLeft=4;spacingRight=4;overflow=hidden;rotatable=0;points=[[0,0.5],[1,0.5]];portConstraint=eastwest;whiteSpace=wrap;" parent="4GFgZBNCq6pFYaqC6Dh2-1" vertex="1">
          <mxGeometry y="55" width="140" height="20" as="geometry" />
        </mxCell>
        <mxCell id="4GFgZBNCq6pFYaqC6Dh2-3" value="+nom" style="text;html=1;strokeColor=none;fillColor=none;align=left;verticalAlign=middle;spacingLeft=4;spacingRight=4;overflow=hidden;rotatable=0;points=[[0,0.5],[1,0.5]];portConstraint=eastwest;whiteSpace=wrap;" parent="4GFgZBNCq6pFYaqC6Dh2-1" vertex="1">
          <mxGeometry y="75" width="140" height="20" as="geometry" />
        </mxCell>
        <mxCell id="4GFgZBNCq6pFYaqC6Dh2-4" value="+prenoms" style="text;html=1;strokeColor=none;fillColor=none;align=left;verticalAlign=middle;spacingLeft=4;spacingRight=4;overflow=hidden;rotatable=0;points=[[0,0.5],[1,0.5]];portConstraint=eastwest;whiteSpace=wrap;" parent="4GFgZBNCq6pFYaqC6Dh2-1" vertex="1">
          <mxGeometry y="95" width="140" height="20" as="geometry" />
        </mxCell>
        <mxCell id="4GFgZBNCq6pFYaqC6Dh2-5" value="+pays" style="text;html=1;strokeColor=none;fillColor=none;align=left;verticalAlign=middle;spacingLeft=4;spacingRight=4;overflow=hidden;rotatable=0;points=[[0,0.5],[1,0.5]];portConstraint=eastwest;whiteSpace=wrap;" parent="4GFgZBNCq6pFYaqC6Dh2-1" vertex="1">
          <mxGeometry y="115" width="140" height="20" as="geometry" />
        </mxCell>
        <mxCell id="4GFgZBNCq6pFYaqC6Dh2-6" value="+age" style="text;html=1;strokeColor=none;fillColor=none;align=left;verticalAlign=middle;spacingLeft=4;spacingRight=4;overflow=hidden;rotatable=0;points=[[0,0.5],[1,0.5]];portConstraint=eastwest;whiteSpace=wrap;" parent="4GFgZBNCq6pFYaqC6Dh2-1" vertex="1">
          <mxGeometry y="135" width="140" height="20" as="geometry" />
        </mxCell>
        <mxCell id="4GFgZBNCq6pFYaqC6Dh2-7" value="+photo_profile" style="text;html=1;strokeColor=none;fillColor=none;align=left;verticalAlign=middle;spacingLeft=4;spacingRight=4;overflow=hidden;rotatable=0;points=[[0,0.5],[1,0.5]];portConstraint=eastwest;whiteSpace=wrap;" parent="4GFgZBNCq6pFYaqC6Dh2-1" vertex="1">
          <mxGeometry y="155" width="140" height="20" as="geometry" />
        </mxCell>
        <mxCell id="4GFgZBNCq6pFYaqC6Dh2-21" value="+taille" style="text;html=1;strokeColor=none;fillColor=none;align=left;verticalAlign=middle;spacingLeft=4;spacingRight=4;overflow=hidden;rotatable=0;points=[[0,0.5],[1,0.5]];portConstraint=eastwest;whiteSpace=wrap;" parent="4GFgZBNCq6pFYaqC6Dh2-1" vertex="1">
          <mxGeometry y="175" width="140" height="20" as="geometry" />
        </mxCell>
        <mxCell id="4GFgZBNCq6pFYaqC6Dh2-22" value="+poids" style="text;html=1;strokeColor=none;fillColor=none;align=left;verticalAlign=middle;spacingLeft=4;spacingRight=4;overflow=hidden;rotatable=0;points=[[0,0.5],[1,0.5]];portConstraint=eastwest;whiteSpace=wrap;" parent="4GFgZBNCq6pFYaqC6Dh2-1" vertex="1">
          <mxGeometry y="195" width="140" height="20" as="geometry" />
        </mxCell>
        <mxCell id="4GFgZBNCq6pFYaqC6Dh2-10" value="" style="line;strokeWidth=1;fillColor=none;align=left;verticalAlign=middle;spacingTop=-1;spacingLeft=3;spacingRight=3;rotatable=0;labelPosition=right;points=[];portConstraint=eastwest;" parent="4GFgZBNCq6pFYaqC6Dh2-1" vertex="1">
          <mxGeometry y="215" width="140" height="8" as="geometry" />
        </mxCell>
        <mxCell id="4GFgZBNCq6pFYaqC6Dh2-13" value="Officier" style="swimlane;fontStyle=0;align=center;verticalAlign=top;childLayout=stackLayout;horizontal=1;startSize=55;horizontalStack=0;resizeParent=1;resizeParentMax=0;resizeLast=0;collapsible=0;marginBottom=0;html=1;whiteSpace=wrap;fillColor=#dae8fc;strokeColor=#6c8ebf;" parent="1" vertex="1">
          <mxGeometry x="90" y="1030" width="140" height="183" as="geometry" />
        </mxCell>
        <mxCell id="4GFgZBNCq6pFYaqC6Dh2-14" value="+officier_id" style="text;html=1;strokeColor=none;fillColor=none;align=left;verticalAlign=middle;spacingLeft=4;spacingRight=4;overflow=hidden;rotatable=0;points=[[0,0.5],[1,0.5]];portConstraint=eastwest;whiteSpace=wrap;" parent="4GFgZBNCq6pFYaqC6Dh2-13" vertex="1">
          <mxGeometry y="55" width="140" height="20" as="geometry" />
        </mxCell>
        <mxCell id="4GFgZBNCq6pFYaqC6Dh2-15" value="+nom" style="text;html=1;strokeColor=none;fillColor=none;align=left;verticalAlign=middle;spacingLeft=4;spacingRight=4;overflow=hidden;rotatable=0;points=[[0,0.5],[1,0.5]];portConstraint=eastwest;whiteSpace=wrap;" parent="4GFgZBNCq6pFYaqC6Dh2-13" vertex="1">
          <mxGeometry y="75" width="140" height="20" as="geometry" />
        </mxCell>
        <mxCell id="4GFgZBNCq6pFYaqC6Dh2-16" value="+prenoms" style="text;html=1;strokeColor=none;fillColor=none;align=left;verticalAlign=middle;spacingLeft=4;spacingRight=4;overflow=hidden;rotatable=0;points=[[0,0.5],[1,0.5]];portConstraint=eastwest;whiteSpace=wrap;" parent="4GFgZBNCq6pFYaqC6Dh2-13" vertex="1">
          <mxGeometry y="95" width="140" height="20" as="geometry" />
        </mxCell>
        <mxCell id="4GFgZBNCq6pFYaqC6Dh2-17" value="+pays" style="text;html=1;strokeColor=none;fillColor=none;align=left;verticalAlign=middle;spacingLeft=4;spacingRight=4;overflow=hidden;rotatable=0;points=[[0,0.5],[1,0.5]];portConstraint=eastwest;whiteSpace=wrap;" parent="4GFgZBNCq6pFYaqC6Dh2-13" vertex="1">
          <mxGeometry y="115" width="140" height="20" as="geometry" />
        </mxCell>
        <mxCell id="4GFgZBNCq6pFYaqC6Dh2-18" value="+age" style="text;html=1;strokeColor=none;fillColor=none;align=left;verticalAlign=middle;spacingLeft=4;spacingRight=4;overflow=hidden;rotatable=0;points=[[0,0.5],[1,0.5]];portConstraint=eastwest;whiteSpace=wrap;" parent="4GFgZBNCq6pFYaqC6Dh2-13" vertex="1">
          <mxGeometry y="135" width="140" height="20" as="geometry" />
        </mxCell>
        <mxCell id="4GFgZBNCq6pFYaqC6Dh2-19" value="+tel" style="text;html=1;strokeColor=none;fillColor=none;align=left;verticalAlign=middle;spacingLeft=4;spacingRight=4;overflow=hidden;rotatable=0;points=[[0,0.5],[1,0.5]];portConstraint=eastwest;whiteSpace=wrap;" parent="4GFgZBNCq6pFYaqC6Dh2-13" vertex="1">
          <mxGeometry y="155" width="140" height="20" as="geometry" />
        </mxCell>
        <mxCell id="4GFgZBNCq6pFYaqC6Dh2-20" value="" style="line;strokeWidth=1;fillColor=none;align=left;verticalAlign=middle;spacingTop=-1;spacingLeft=3;spacingRight=3;rotatable=0;labelPosition=right;points=[];portConstraint=eastwest;" parent="4GFgZBNCq6pFYaqC6Dh2-13" vertex="1">
          <mxGeometry y="175" width="140" height="8" as="geometry" />
        </mxCell>
        <mxCell id="4GFgZBNCq6pFYaqC6Dh2-23" value="Stade" style="swimlane;fontStyle=0;align=center;verticalAlign=top;childLayout=stackLayout;horizontal=1;startSize=55;horizontalStack=0;resizeParent=1;resizeParentMax=0;resizeLast=0;collapsible=0;marginBottom=0;html=1;whiteSpace=wrap;fillColor=#dae8fc;strokeColor=#6c8ebf;" parent="1" vertex="1">
          <mxGeometry x="90" y="1280" width="140" height="203" as="geometry" />
        </mxCell>
        <mxCell id="4GFgZBNCq6pFYaqC6Dh2-24" value="+stade_id" style="text;html=1;strokeColor=none;fillColor=none;align=left;verticalAlign=middle;spacingLeft=4;spacingRight=4;overflow=hidden;rotatable=0;points=[[0,0.5],[1,0.5]];portConstraint=eastwest;whiteSpace=wrap;" parent="4GFgZBNCq6pFYaqC6Dh2-23" vertex="1">
          <mxGeometry y="55" width="140" height="20" as="geometry" />
        </mxCell>
        <mxCell id="4GFgZBNCq6pFYaqC6Dh2-25" value="+nom" style="text;html=1;strokeColor=none;fillColor=none;align=left;verticalAlign=middle;spacingLeft=4;spacingRight=4;overflow=hidden;rotatable=0;points=[[0,0.5],[1,0.5]];portConstraint=eastwest;whiteSpace=wrap;" parent="4GFgZBNCq6pFYaqC6Dh2-23" vertex="1">
          <mxGeometry y="75" width="140" height="20" as="geometry" />
        </mxCell>
        <mxCell id="4GFgZBNCq6pFYaqC6Dh2-27" value="+pays" style="text;html=1;strokeColor=none;fillColor=none;align=left;verticalAlign=middle;spacingLeft=4;spacingRight=4;overflow=hidden;rotatable=0;points=[[0,0.5],[1,0.5]];portConstraint=eastwest;whiteSpace=wrap;" parent="4GFgZBNCq6pFYaqC6Dh2-23" vertex="1">
          <mxGeometry y="95" width="140" height="20" as="geometry" />
        </mxCell>
        <mxCell id="4GFgZBNCq6pFYaqC6Dh2-28" value="+ville" style="text;html=1;strokeColor=none;fillColor=none;align=left;verticalAlign=middle;spacingLeft=4;spacingRight=4;overflow=hidden;rotatable=0;points=[[0,0.5],[1,0.5]];portConstraint=eastwest;whiteSpace=wrap;" parent="4GFgZBNCq6pFYaqC6Dh2-23" vertex="1">
          <mxGeometry y="115" width="140" height="20" as="geometry" />
        </mxCell>
        <mxCell id="4GFgZBNCq6pFYaqC6Dh2-29" value="+adresse" style="text;html=1;strokeColor=none;fillColor=none;align=left;verticalAlign=middle;spacingLeft=4;spacingRight=4;overflow=hidden;rotatable=0;points=[[0,0.5],[1,0.5]];portConstraint=eastwest;whiteSpace=wrap;" parent="4GFgZBNCq6pFYaqC6Dh2-23" vertex="1">
          <mxGeometry y="135" width="140" height="20" as="geometry" />
        </mxCell>
        <mxCell id="4GFgZBNCq6pFYaqC6Dh2-31" value="+tel" style="text;html=1;strokeColor=none;fillColor=none;align=left;verticalAlign=middle;spacingLeft=4;spacingRight=4;overflow=hidden;rotatable=0;points=[[0,0.5],[1,0.5]];portConstraint=eastwest;whiteSpace=wrap;" parent="4GFgZBNCq6pFYaqC6Dh2-23" vertex="1">
          <mxGeometry y="155" width="140" height="20" as="geometry" />
        </mxCell>
        <mxCell id="4GFgZBNCq6pFYaqC6Dh2-32" value="+nombre_place" style="text;html=1;strokeColor=none;fillColor=none;align=left;verticalAlign=middle;spacingLeft=4;spacingRight=4;overflow=hidden;rotatable=0;points=[[0,0.5],[1,0.5]];portConstraint=eastwest;whiteSpace=wrap;" parent="4GFgZBNCq6pFYaqC6Dh2-23" vertex="1">
          <mxGeometry y="175" width="140" height="20" as="geometry" />
        </mxCell>
        <mxCell id="4GFgZBNCq6pFYaqC6Dh2-30" value="" style="line;strokeWidth=1;fillColor=none;align=left;verticalAlign=middle;spacingTop=-1;spacingLeft=3;spacingRight=3;rotatable=0;labelPosition=right;points=[];portConstraint=eastwest;" parent="4GFgZBNCq6pFYaqC6Dh2-23" vertex="1">
          <mxGeometry y="195" width="140" height="8" as="geometry" />
        </mxCell>
        <mxCell id="4GFgZBNCq6pFYaqC6Dh2-33" value="&lt;div style=&quot;font-size: 15px;&quot;&gt;&lt;span style=&quot;background-color: initial;&quot;&gt;&lt;font style=&quot;font-size: 15px;&quot;&gt;// Document Evenenment&lt;/font&gt;&lt;/span&gt;&lt;/div&gt;&lt;div style=&quot;font-size: 15px;&quot;&gt;&lt;span style=&quot;background-color: initial;&quot;&gt;&lt;font style=&quot;font-size: 15px;&quot;&gt;{&lt;/font&gt;&lt;/span&gt;&lt;/div&gt;&lt;div style=&quot;font-size: 15px;&quot;&gt;&lt;span style=&quot;background-color: initial;&quot; class=&quot;hljs-attr&quot;&gt;&lt;span style=&quot;white-space-collapse: preserve;&quot;&gt;&#x9;&lt;/span&gt;&quot;evenement_id&quot;&lt;/span&gt;&lt;span style=&quot;background-color: initial;&quot; class=&quot;hljs-punctuation&quot;&gt;:&lt;/span&gt;&lt;span style=&quot;background-color: initial;&quot;&gt;&amp;nbsp;1&lt;/span&gt;&lt;span style=&quot;background-color: initial;&quot; class=&quot;hljs-punctuation&quot;&gt;,&lt;/span&gt;&lt;/div&gt;&lt;span style=&quot;font-size: 15px;&quot; class=&quot;hljs-attr&quot;&gt;&lt;/span&gt;&lt;div style=&quot;font-size: 15px;&quot;&gt;&lt;font style=&quot;font-size: 15px;&quot;&gt;&lt;span style=&quot;background-color: initial;&quot; class=&quot;hljs-attr&quot;&gt;&lt;span style=&quot;white-space: pre;&quot;&gt;&#x9;&lt;/span&gt;&quot;no_evenement&quot;&lt;/span&gt;&lt;span style=&quot;background-color: initial;&quot; class=&quot;hljs-punctuation&quot;&gt;:&lt;/span&gt;&lt;span style=&quot;background-color: initial;&quot;&gt; &lt;/span&gt;&lt;span style=&quot;background-color: initial;&quot; class=&quot;hljs-string&quot;&gt;&quot;001&quot;&lt;/span&gt;&lt;span style=&quot;background-color: initial;&quot; class=&quot;hljs-punctuation&quot;&gt;,&lt;/span&gt;&lt;/font&gt;&lt;/div&gt;&lt;div style=&quot;font-size: 15px;&quot;&gt;&lt;font style=&quot;font-size: 15px;&quot;&gt;&lt;span style=&quot;background-color: initial;&quot; class=&quot;hljs-punctuation&quot;&gt;&lt;span style=&quot;white-space: pre;&quot;&gt;&#x9;&lt;/span&gt;&quot;nom&quot;: &quot;Jeux Olympique de France 2024&quot;,&lt;br&gt;&lt;/span&gt;&lt;/font&gt;&lt;/div&gt;&lt;div style=&quot;font-size: 15px;&quot;&gt;&lt;font style=&quot;font-size: 15px;&quot;&gt;&lt;span style=&quot;background-color: initial;&quot; class=&quot;hljs-punctuation&quot;&gt;&lt;span style=&quot;white-space: pre;&quot;&gt;&#x9;&lt;/span&gt;&quot;description&quot;: &quot;Jeux Olympique&quot;,&lt;br&gt;&lt;/span&gt;&lt;/font&gt;&lt;/div&gt;    &lt;span style=&quot;font-size: 15px;&quot; class=&quot;hljs-attr&quot;&gt;&lt;div style=&quot;&quot;&gt;&lt;font style=&quot;font-size: 15px;&quot;&gt;&lt;span style=&quot;background-color: initial;&quot; class=&quot;hljs-attr&quot;&gt;&lt;span style=&quot;white-space: pre;&quot;&gt;&#x9;&lt;/span&gt;&quot;annee&quot;&lt;/span&gt;&lt;span style=&quot;background-color: initial;&quot; class=&quot;hljs-punctuation&quot;&gt;:&lt;/span&gt;&lt;span style=&quot;background-color: initial;&quot;&gt; &lt;/span&gt;&lt;span style=&quot;background-color: initial;&quot; class=&quot;hljs-number&quot;&gt;2024&lt;/span&gt;&lt;span style=&quot;background-color: initial;&quot; class=&quot;hljs-punctuation&quot;&gt;,&lt;/span&gt;&lt;/font&gt;&lt;/div&gt;&lt;/span&gt;&lt;div style=&quot;font-size: 15px;&quot;&gt;&lt;font style=&quot;font-size: 15px;&quot;&gt;&lt;span style=&quot;background-color: initial;&quot; class=&quot;hljs-attr&quot;&gt;&lt;span style=&quot;white-space: pre;&quot;&gt;&#x9;&lt;/span&gt;&quot;date_debut&quot;&lt;/span&gt;&lt;span style=&quot;background-color: initial;&quot; class=&quot;hljs-punctuation&quot;&gt;:&lt;/span&gt;&lt;span style=&quot;background-color: initial;&quot;&gt; &lt;/span&gt;&lt;span style=&quot;background-color: initial;&quot; class=&quot;hljs-string&quot;&gt;&quot;2024-07-26&quot;&lt;/span&gt;&lt;span style=&quot;background-color: initial;&quot; class=&quot;hljs-punctuation&quot;&gt;,&lt;/span&gt;&lt;/font&gt;&lt;/div&gt;    &lt;span style=&quot;font-size: 15px;&quot; class=&quot;hljs-attr&quot;&gt;&lt;div style=&quot;&quot;&gt;&lt;font style=&quot;font-size: 15px;&quot;&gt;&lt;span style=&quot;background-color: initial;&quot; class=&quot;hljs-attr&quot;&gt;&lt;span style=&quot;white-space: pre;&quot;&gt;&#x9;&lt;/span&gt;&quot;date_fin&quot;&lt;/span&gt;&lt;span style=&quot;background-color: initial;&quot; class=&quot;hljs-punctuation&quot;&gt;:&lt;/span&gt;&lt;span style=&quot;background-color: initial;&quot;&gt; &lt;/span&gt;&lt;span style=&quot;background-color: initial;&quot; class=&quot;hljs-string&quot;&gt;&quot;2024-08-11&quot;&lt;/span&gt;&lt;span style=&quot;background-color: initial;&quot; class=&quot;hljs-punctuation&quot;&gt;,&lt;/span&gt;&lt;/font&gt;&lt;/div&gt;&lt;/span&gt;&lt;div style=&quot;font-size: 15px;&quot;&gt;&lt;font style=&quot;font-size: 15px;&quot;&gt;&lt;span style=&quot;background-color: initial;&quot; class=&quot;hljs-attr&quot;&gt;&lt;span style=&quot;white-space: pre;&quot;&gt;&#x9;&lt;/span&gt;&quot;pays&quot;&lt;/span&gt;&lt;span style=&quot;background-color: initial;&quot; class=&quot;hljs-punctuation&quot;&gt;:&lt;/span&gt;&lt;span style=&quot;background-color: initial;&quot;&gt; &lt;/span&gt;&lt;span style=&quot;background-color: initial;&quot; class=&quot;hljs-string&quot;&gt;&quot;France&quot;&lt;/span&gt;&lt;/font&gt;&lt;/div&gt;  &lt;span style=&quot;font-size: 15px;&quot; class=&quot;hljs-punctuation&quot;&gt;&lt;div style=&quot;&quot;&gt;&lt;span style=&quot;background-color: initial;&quot;&gt;&lt;font style=&quot;font-size: 15px;&quot;&gt;}&lt;/font&gt;&lt;/span&gt;&lt;/div&gt;&lt;/span&gt;" style="text;html=1;align=left;verticalAlign=middle;resizable=0;points=[];autosize=1;strokeColor=none;fillColor=none;" parent="1" vertex="1">
          <mxGeometry x="282" y="120" width="340" height="210" as="geometry" />
        </mxCell>
        <mxCell id="4GFgZBNCq6pFYaqC6Dh2-34" value="&lt;div style=&quot;font-size: 15px;&quot;&gt;&lt;span style=&quot;background-color: initial;&quot;&gt;&lt;font style=&quot;font-size: 15px;&quot;&gt;// Document Comptetition&lt;/font&gt;&lt;/span&gt;&lt;/div&gt;&lt;div style=&quot;font-size: 15px;&quot;&gt;&lt;span style=&quot;background-color: initial;&quot;&gt;&lt;font style=&quot;font-size: 15px;&quot;&gt;{&lt;/font&gt;&lt;/span&gt;&lt;/div&gt;&lt;div style=&quot;font-size: 15px;&quot;&gt;&lt;span style=&quot;background-color: initial;&quot; class=&quot;hljs-attr&quot;&gt;&lt;span style=&quot;white-space-collapse: preserve;&quot;&gt;&#x9;&lt;/span&gt;&quot;competition_id&quot;&lt;/span&gt;&lt;span style=&quot;background-color: initial;&quot; class=&quot;hljs-punctuation&quot;&gt;:&lt;/span&gt;&lt;span style=&quot;background-color: initial;&quot;&gt;&amp;nbsp;1&lt;/span&gt;&lt;span style=&quot;background-color: initial;&quot; class=&quot;hljs-punctuation&quot;&gt;,&lt;/span&gt;&lt;/div&gt;&lt;span style=&quot;font-size: 15px;&quot; class=&quot;hljs-attr&quot;&gt;&lt;/span&gt;&lt;div style=&quot;font-size: 15px;&quot;&gt;&lt;font style=&quot;font-size: 15px;&quot;&gt;&lt;span style=&quot;background-color: initial;&quot; class=&quot;hljs-attr&quot;&gt;&lt;span style=&quot;white-space: pre;&quot;&gt;&#x9;&lt;/span&gt;&quot;evenement_id&quot;&lt;/span&gt;&lt;span style=&quot;background-color: initial;&quot; class=&quot;hljs-punctuation&quot;&gt;:&lt;/span&gt;&lt;span style=&quot;background-color: initial;&quot;&gt;&amp;nbsp;2&lt;/span&gt;&lt;span style=&quot;background-color: initial;&quot; class=&quot;hljs-punctuation&quot;&gt;,&lt;/span&gt;&lt;/font&gt;&lt;/div&gt;&lt;div style=&quot;font-size: 15px;&quot;&gt;&lt;font style=&quot;font-size: 15px;&quot;&gt;&lt;span style=&quot;background-color: initial;&quot; class=&quot;hljs-punctuation&quot;&gt;&lt;span style=&quot;white-space: pre;&quot;&gt;&#x9;&lt;/span&gt;&quot;stade_id&quot;: 10,&lt;br&gt;&lt;/span&gt;&lt;/font&gt;&lt;/div&gt;&lt;div style=&quot;font-size: 15px;&quot;&gt;&lt;font style=&quot;font-size: 15px;&quot;&gt;&lt;span style=&quot;background-color: initial;&quot; class=&quot;hljs-punctuation&quot;&gt;&lt;span style=&quot;white-space: pre;&quot;&gt;&#x9;&lt;/span&gt;&quot;categorie&quot;: &quot;EN_SOLO&quot;,&lt;br&gt;&lt;/span&gt;&lt;/font&gt;&lt;/div&gt;    &lt;span style=&quot;font-size: 15px;&quot; class=&quot;hljs-attr&quot;&gt;&lt;div style=&quot;&quot;&gt;&lt;font style=&quot;font-size: 15px;&quot;&gt;&lt;span style=&quot;background-color: initial;&quot; class=&quot;hljs-attr&quot;&gt;&lt;span style=&quot;white-space: pre;&quot;&gt;&#x9;&lt;/span&gt;&quot;Jeu&quot;&lt;/span&gt;&lt;span style=&quot;background-color: initial;&quot; class=&quot;hljs-punctuation&quot;&gt;:&lt;/span&gt;&lt;span style=&quot;background-color: initial;&quot;&gt; &lt;/span&gt;&lt;span style=&quot;background-color: initial;&quot; class=&quot;hljs-number&quot;&gt;&quot;Boxe&quot;&lt;/span&gt;&lt;span style=&quot;background-color: initial;&quot; class=&quot;hljs-punctuation&quot;&gt;,&lt;/span&gt;&lt;/font&gt;&lt;/div&gt;&lt;/span&gt;&lt;div style=&quot;font-size: 15px;&quot;&gt;&lt;font style=&quot;font-size: 15px;&quot;&gt;&lt;span style=&quot;background-color: initial;&quot; class=&quot;hljs-attr&quot;&gt;&lt;span style=&quot;white-space: pre;&quot;&gt;&#x9;&lt;/span&gt;&quot;date_debut&quot;&lt;/span&gt;&lt;span style=&quot;background-color: initial;&quot; class=&quot;hljs-punctuation&quot;&gt;:&lt;/span&gt;&lt;span style=&quot;background-color: initial;&quot;&gt; &lt;/span&gt;&lt;span style=&quot;background-color: initial;&quot; class=&quot;hljs-string&quot;&gt;&quot;2024-07-27T14:00:00&quot;&lt;/span&gt;&lt;span style=&quot;background-color: initial;&quot; class=&quot;hljs-punctuation&quot;&gt;,&lt;/span&gt;&lt;/font&gt;&lt;/div&gt;    &lt;span style=&quot;font-size: 15px;&quot; class=&quot;hljs-attr&quot;&gt;&lt;div style=&quot;&quot;&gt;&lt;font style=&quot;font-size: 15px;&quot;&gt;&lt;span style=&quot;background-color: initial;&quot; class=&quot;hljs-attr&quot;&gt;&lt;span style=&quot;white-space: pre;&quot;&gt;&#x9;&lt;/span&gt;&quot;date_fin&quot;&lt;/span&gt;&lt;span style=&quot;background-color: initial;&quot; class=&quot;hljs-punctuation&quot;&gt;:&lt;/span&gt;&lt;span style=&quot;background-color: initial;&quot;&gt; &lt;/span&gt;&lt;span style=&quot;background-color: initial;&quot; class=&quot;hljs-string&quot;&gt;&quot;2024-07-27T18:00:00&quot;&lt;/span&gt;&lt;span style=&quot;background-color: initial;&quot; class=&quot;hljs-punctuation&quot;&gt;,&lt;/span&gt;&lt;/font&gt;&lt;/div&gt;&lt;div style=&quot;&quot;&gt;&lt;font style=&quot;font-size: 15px;&quot;&gt;&lt;span style=&quot;background-color: initial;&quot; class=&quot;hljs-punctuation&quot;&gt;&lt;span style=&quot;white-space: pre;&quot;&gt;&#x9;&lt;/span&gt;&lt;/span&gt;&lt;/font&gt;&lt;span style=&quot;background-color: initial;&quot; class=&quot;hljs-attr&quot;&gt;&quot;athletes&quot;&lt;/span&gt;&lt;span style=&quot;background-color: initial;&quot; class=&quot;hljs-punctuation&quot;&gt;:&lt;/span&gt;&lt;span style=&quot;background-color: initial;&quot;&gt;&amp;nbsp;&lt;/span&gt;&lt;span style=&quot;background-color: initial;&quot; class=&quot;hljs-string&quot;&gt;[45, 1234, 87]&lt;/span&gt;&lt;span style=&quot;background-color: initial;&quot; class=&quot;hljs-punctuation&quot;&gt;,&lt;/span&gt;&lt;/div&gt;&lt;div style=&quot;&quot;&gt;&lt;span style=&quot;background-color: initial;&quot; class=&quot;hljs-punctuation&quot;&gt;&lt;span style=&quot;background-color: initial;&quot; class=&quot;hljs-punctuation&quot;&gt;&lt;span style=&quot;white-space-collapse: preserve;&quot;&gt;&#x9;&lt;/span&gt;&lt;/span&gt;&quot;officiers&quot;:&amp;nbsp;[1],&lt;/span&gt;&lt;/div&gt;&lt;/span&gt;&lt;div style=&quot;font-size: 15px;&quot;&gt;&lt;font style=&quot;font-size: 15px;&quot;&gt;&lt;span style=&quot;background-color: initial;&quot; class=&quot;hljs-attr&quot;&gt;&lt;span style=&quot;white-space: pre;&quot;&gt;&#x9;&lt;/span&gt;&quot;medailles&quot;&lt;/span&gt;&lt;span style=&quot;background-color: initial;&quot; class=&quot;hljs-punctuation&quot;&gt;:&lt;/span&gt;&lt;span style=&quot;background-color: initial;&quot;&gt; &lt;/span&gt;&lt;span style=&quot;background-color: initial;&quot; class=&quot;hljs-string&quot;&gt;{&lt;/span&gt;&lt;/font&gt;&lt;/div&gt;&lt;div style=&quot;font-size: 15px;&quot;&gt;&lt;font style=&quot;font-size: 15px;&quot;&gt;&lt;span style=&quot;background-color: initial;&quot; class=&quot;hljs-string&quot;&gt;&lt;span style=&quot;white-space: pre;&quot;&gt;&#x9;&lt;/span&gt;&lt;span style=&quot;white-space: pre;&quot;&gt;&#x9;&lt;/span&gt;&quot;or&quot;: [&lt;/span&gt;&lt;/font&gt;&lt;span style=&quot;background-color: initial;&quot;&gt;45&lt;/span&gt;&lt;span style=&quot;background-color: initial;&quot;&gt;],&lt;/span&gt;&lt;/div&gt;&lt;div style=&quot;font-size: 15px;&quot;&gt;&lt;span style=&quot;background-color: initial;&quot;&gt;&lt;span style=&quot;white-space: pre;&quot;&gt;&#x9;&lt;/span&gt;&lt;span style=&quot;white-space: pre;&quot;&gt;&#x9;&lt;/span&gt;&quot;argent&quot;: [&lt;/span&gt;&lt;span style=&quot;background-color: initial;&quot;&gt;87&lt;/span&gt;&lt;span style=&quot;background-color: initial;&quot;&gt;],&lt;/span&gt;&lt;/div&gt;&lt;div style=&quot;font-size: 15px;&quot;&gt;&lt;span style=&quot;background-color: initial;&quot;&gt;&lt;span style=&quot;white-space: pre;&quot;&gt;&#x9;&lt;/span&gt;&lt;span style=&quot;white-space: pre;&quot;&gt;&#x9;&lt;/span&gt;&quot;bronze&quot;: [&lt;/span&gt;&lt;span style=&quot;background-color: initial;&quot;&gt;1234&lt;/span&gt;&lt;span style=&quot;background-color: initial;&quot;&gt;]&lt;/span&gt;&lt;/div&gt;&lt;div style=&quot;font-size: 15px;&quot;&gt;&lt;font style=&quot;font-size: 15px;&quot;&gt;&lt;span style=&quot;background-color: initial;&quot; class=&quot;hljs-string&quot;&gt;&lt;span style=&quot;white-space: pre;&quot;&gt;&#x9;&lt;/span&gt;}&lt;br&gt;&lt;/span&gt;&lt;/font&gt;&lt;/div&gt;  &lt;span style=&quot;font-size: 15px;&quot; class=&quot;hljs-punctuation&quot;&gt;&lt;div style=&quot;&quot;&gt;&lt;span style=&quot;background-color: initial;&quot;&gt;&lt;font style=&quot;font-size: 15px;&quot;&gt;}&lt;/font&gt;&lt;/span&gt;&lt;/div&gt;&lt;/span&gt;" style="text;html=1;align=left;verticalAlign=middle;resizable=0;points=[];autosize=1;strokeColor=none;fillColor=none;" parent="1" vertex="1">
          <mxGeometry x="282" y="380" width="310" height="320" as="geometry" />
        </mxCell>
        <mxCell id="HErzw3v6DC_TRmaPDKfs-1" value="Media" style="swimlane;fontStyle=0;align=center;verticalAlign=top;childLayout=stackLayout;horizontal=1;startSize=55;horizontalStack=0;resizeParent=1;resizeParentMax=0;resizeLast=0;collapsible=0;marginBottom=0;html=1;whiteSpace=wrap;fillColor=#dae8fc;strokeColor=#6c8ebf;" vertex="1" parent="1">
          <mxGeometry x="90" y="1560" width="140" height="163" as="geometry" />
        </mxCell>
        <mxCell id="HErzw3v6DC_TRmaPDKfs-2" value="+media_id" style="text;html=1;strokeColor=none;fillColor=none;align=left;verticalAlign=middle;spacingLeft=4;spacingRight=4;overflow=hidden;rotatable=0;points=[[0,0.5],[1,0.5]];portConstraint=eastwest;whiteSpace=wrap;" vertex="1" parent="HErzw3v6DC_TRmaPDKfs-1">
          <mxGeometry y="55" width="140" height="20" as="geometry" />
        </mxCell>
        <mxCell id="HErzw3v6DC_TRmaPDKfs-3" value="+nom" style="text;html=1;strokeColor=none;fillColor=none;align=left;verticalAlign=middle;spacingLeft=4;spacingRight=4;overflow=hidden;rotatable=0;points=[[0,0.5],[1,0.5]];portConstraint=eastwest;whiteSpace=wrap;" vertex="1" parent="HErzw3v6DC_TRmaPDKfs-1">
          <mxGeometry y="75" width="140" height="20" as="geometry" />
        </mxCell>
        <mxCell id="HErzw3v6DC_TRmaPDKfs-4" value="+date_creation" style="text;html=1;strokeColor=none;fillColor=none;align=left;verticalAlign=middle;spacingLeft=4;spacingRight=4;overflow=hidden;rotatable=0;points=[[0,0.5],[1,0.5]];portConstraint=eastwest;whiteSpace=wrap;" vertex="1" parent="HErzw3v6DC_TRmaPDKfs-1">
          <mxGeometry y="95" width="140" height="20" as="geometry" />
        </mxCell>
        <mxCell id="HErzw3v6DC_TRmaPDKfs-5" value="+path" style="text;html=1;strokeColor=none;fillColor=none;align=left;verticalAlign=middle;spacingLeft=4;spacingRight=4;overflow=hidden;rotatable=0;points=[[0,0.5],[1,0.5]];portConstraint=eastwest;whiteSpace=wrap;" vertex="1" parent="HErzw3v6DC_TRmaPDKfs-1">
          <mxGeometry y="115" width="140" height="20" as="geometry" />
        </mxCell>
        <mxCell id="HErzw3v6DC_TRmaPDKfs-8" value="+type" style="text;html=1;strokeColor=none;fillColor=none;align=left;verticalAlign=middle;spacingLeft=4;spacingRight=4;overflow=hidden;rotatable=0;points=[[0,0.5],[1,0.5]];portConstraint=eastwest;whiteSpace=wrap;" vertex="1" parent="HErzw3v6DC_TRmaPDKfs-1">
          <mxGeometry y="135" width="140" height="20" as="geometry" />
        </mxCell>
        <mxCell id="HErzw3v6DC_TRmaPDKfs-9" value="" style="line;strokeWidth=1;fillColor=none;align=left;verticalAlign=middle;spacingTop=-1;spacingLeft=3;spacingRight=3;rotatable=0;labelPosition=right;points=[];portConstraint=eastwest;" vertex="1" parent="HErzw3v6DC_TRmaPDKfs-1">
          <mxGeometry y="155" width="140" height="8" as="geometry" />
        </mxCell>
        <mxCell id="HErzw3v6DC_TRmaPDKfs-11" value="&lt;div style=&quot;font-size: 15px;&quot;&gt;&lt;span style=&quot;background-color: initial;&quot;&gt;&lt;font style=&quot;font-size: 15px;&quot;&gt;// Document Athlete&lt;/font&gt;&lt;/span&gt;&lt;/div&gt;&lt;div style=&quot;font-size: 15px;&quot;&gt;&lt;span style=&quot;background-color: initial;&quot;&gt;&lt;font style=&quot;font-size: 15px;&quot;&gt;{&lt;/font&gt;&lt;/span&gt;&lt;/div&gt;&lt;div style=&quot;font-size: 15px;&quot;&gt;&lt;span style=&quot;background-color: initial;&quot; class=&quot;hljs-attr&quot;&gt;&lt;span style=&quot;white-space-collapse: preserve;&quot;&gt;&#x9;&lt;/span&gt;&quot;athlete_id&quot;&lt;/span&gt;&lt;span style=&quot;background-color: initial;&quot; class=&quot;hljs-punctuation&quot;&gt;:&lt;/span&gt;&lt;span style=&quot;background-color: initial;&quot;&gt;&amp;nbsp;1&lt;/span&gt;&lt;span style=&quot;background-color: initial;&quot; class=&quot;hljs-punctuation&quot;&gt;,&lt;/span&gt;&lt;/div&gt;&lt;span style=&quot;font-size: 15px;&quot; class=&quot;hljs-attr&quot;&gt;&lt;/span&gt;&lt;div style=&quot;font-size: 15px;&quot;&gt;&lt;span style=&quot;background-color: initial; white-space-collapse: preserve;&quot;&gt;&#x9;&lt;/span&gt;&lt;span style=&quot;background-color: initial;&quot;&gt;&quot;nom&quot;: &quot;Jymmy&quot;,&lt;/span&gt;&lt;/div&gt;&lt;div style=&quot;font-size: 15px;&quot;&gt;&lt;font style=&quot;font-size: 15px;&quot;&gt;&lt;span style=&quot;background-color: initial;&quot; class=&quot;hljs-punctuation&quot;&gt;&lt;span style=&quot;white-space: pre;&quot;&gt;&#x9;&lt;/span&gt;&quot;prenoms&quot;: &quot;Tower&quot;,&lt;br&gt;&lt;/span&gt;&lt;/font&gt;&lt;/div&gt;    &lt;span style=&quot;font-size: 15px;&quot; class=&quot;hljs-attr&quot;&gt;&lt;div style=&quot;&quot;&gt;&lt;font style=&quot;font-size: 15px;&quot;&gt;&lt;span style=&quot;background-color: initial;&quot; class=&quot;hljs-attr&quot;&gt;&lt;span style=&quot;white-space: pre;&quot;&gt;&#x9;&lt;/span&gt;&quot;pays&quot;&lt;/span&gt;&lt;span style=&quot;background-color: initial;&quot; class=&quot;hljs-punctuation&quot;&gt;:&lt;/span&gt;&lt;span style=&quot;background-color: initial;&quot;&gt; &lt;/span&gt;&lt;span style=&quot;background-color: initial;&quot; class=&quot;hljs-number&quot;&gt;&quot;Russie&quot;&lt;/span&gt;&lt;span style=&quot;background-color: initial;&quot; class=&quot;hljs-punctuation&quot;&gt;,&lt;/span&gt;&lt;/font&gt;&lt;/div&gt;&lt;/span&gt;&lt;div style=&quot;font-size: 15px;&quot;&gt;&lt;font style=&quot;font-size: 15px;&quot;&gt;&lt;span style=&quot;background-color: initial;&quot; class=&quot;hljs-attr&quot;&gt;&lt;span style=&quot;white-space: pre;&quot;&gt;&#x9;&lt;/span&gt;&quot;age&quot;&lt;/span&gt;&lt;span style=&quot;background-color: initial;&quot; class=&quot;hljs-punctuation&quot;&gt;:&lt;/span&gt;&lt;span style=&quot;background-color: initial;&quot;&gt; &lt;/span&gt;&lt;span style=&quot;background-color: initial;&quot; class=&quot;hljs-string&quot;&gt;&quot;24&quot;&lt;/span&gt;&lt;span style=&quot;background-color: initial;&quot; class=&quot;hljs-punctuation&quot;&gt;,&lt;/span&gt;&lt;/font&gt;&lt;/div&gt;    &lt;span style=&quot;font-size: 15px;&quot; class=&quot;hljs-attr&quot;&gt;&lt;div style=&quot;&quot;&gt;&lt;font style=&quot;font-size: 15px;&quot;&gt;&lt;span style=&quot;background-color: initial;&quot; class=&quot;hljs-attr&quot;&gt;&lt;span style=&quot;white-space: pre;&quot;&gt;&#x9;&lt;/span&gt;&quot;photo_profile&quot;&lt;/span&gt;&lt;span style=&quot;background-color: initial;&quot; class=&quot;hljs-punctuation&quot;&gt;:&lt;/span&gt;&lt;span style=&quot;background-color: initial;&quot;&gt; &lt;/span&gt;&lt;span style=&quot;background-color: initial;&quot; class=&quot;hljs-string&quot;&gt;&quot;https://i.scdn.co/image/ab67616d0000b273f903e62767a0e22e33b7af83&quot;&lt;/span&gt;&lt;span style=&quot;background-color: initial;&quot; class=&quot;hljs-punctuation&quot;&gt;,&lt;/span&gt;&lt;/font&gt;&lt;/div&gt;&lt;/span&gt;&lt;div style=&quot;font-size: 15px;&quot;&gt;&lt;font style=&quot;font-size: 15px;&quot;&gt;&lt;span style=&quot;background-color: initial;&quot; class=&quot;hljs-attr&quot;&gt;&lt;span style=&quot;white-space: pre;&quot;&gt;&#x9;&lt;/span&gt;&quot;taille&quot;&lt;/span&gt;&lt;span style=&quot;background-color: initial;&quot; class=&quot;hljs-punctuation&quot;&gt;:&lt;/span&gt;&lt;span style=&quot;background-color: initial;&quot;&gt; &lt;/span&gt;&lt;span style=&quot;background-color: initial;&quot; class=&quot;hljs-string&quot;&gt;&quot;193&quot;,&lt;/span&gt;&lt;/font&gt;&lt;/div&gt;&lt;div style=&quot;font-size: 15px;&quot;&gt;&lt;font style=&quot;font-size: 15px;&quot;&gt;&lt;span style=&quot;background-color: initial;&quot; class=&quot;hljs-string&quot;&gt;&lt;span style=&quot;white-space: pre;&quot;&gt;&#x9;&lt;/span&gt;&quot;poids&quot;; &quot;94&quot;&lt;br&gt;&lt;/span&gt;&lt;/font&gt;&lt;/div&gt;  &lt;span style=&quot;font-size: 15px;&quot; class=&quot;hljs-punctuation&quot;&gt;&lt;div style=&quot;&quot;&gt;&lt;span style=&quot;background-color: initial;&quot;&gt;&lt;font style=&quot;font-size: 15px;&quot;&gt;}&lt;/font&gt;&lt;/span&gt;&lt;/div&gt;&lt;/span&gt;" style="text;html=1;align=left;verticalAlign=middle;resizable=0;points=[];autosize=1;strokeColor=none;fillColor=none;" vertex="1" parent="1">
          <mxGeometry x="290" y="760" width="660" height="210" as="geometry" />
        </mxCell>
        <mxCell id="HErzw3v6DC_TRmaPDKfs-13" value="&lt;div style=&quot;font-size: 15px;&quot;&gt;&lt;span style=&quot;background-color: initial;&quot;&gt;&lt;font style=&quot;font-size: 15px;&quot;&gt;// Document Officier&lt;/font&gt;&lt;/span&gt;&lt;/div&gt;&lt;div style=&quot;font-size: 15px;&quot;&gt;&lt;span style=&quot;background-color: initial;&quot;&gt;&lt;font style=&quot;font-size: 15px;&quot;&gt;{&lt;/font&gt;&lt;/span&gt;&lt;/div&gt;&lt;div style=&quot;font-size: 15px;&quot;&gt;&lt;span style=&quot;background-color: initial;&quot; class=&quot;hljs-attr&quot;&gt;&lt;span style=&quot;white-space-collapse: preserve;&quot;&gt;&#x9;&lt;/span&gt;&quot;officier_id&quot;&lt;/span&gt;&lt;span style=&quot;background-color: initial;&quot; class=&quot;hljs-punctuation&quot;&gt;:&lt;/span&gt;&lt;span style=&quot;background-color: initial;&quot;&gt;&amp;nbsp;1&lt;/span&gt;&lt;span style=&quot;background-color: initial;&quot; class=&quot;hljs-punctuation&quot;&gt;,&lt;/span&gt;&lt;/div&gt;&lt;span style=&quot;font-size: 15px;&quot; class=&quot;hljs-attr&quot;&gt;&lt;/span&gt;&lt;div style=&quot;font-size: 15px;&quot;&gt;&lt;span style=&quot;background-color: initial; white-space-collapse: preserve;&quot;&gt;&#x9;&lt;/span&gt;&lt;span style=&quot;background-color: initial;&quot;&gt;&quot;nom&quot;: &quot;Alfred&quot;,&lt;/span&gt;&lt;/div&gt;&lt;div style=&quot;font-size: 15px;&quot;&gt;&lt;font style=&quot;font-size: 15px;&quot;&gt;&lt;span style=&quot;background-color: initial;&quot; class=&quot;hljs-punctuation&quot;&gt;&lt;span style=&quot;white-space: pre;&quot;&gt;&#x9;&lt;/span&gt;&quot;prenoms&quot;: &quot;YOKA&quot;,&lt;br&gt;&lt;/span&gt;&lt;/font&gt;&lt;/div&gt;    &lt;span style=&quot;font-size: 15px;&quot; class=&quot;hljs-attr&quot;&gt;&lt;div style=&quot;&quot;&gt;&lt;font style=&quot;font-size: 15px;&quot;&gt;&lt;span style=&quot;background-color: initial;&quot; class=&quot;hljs-attr&quot;&gt;&lt;span style=&quot;white-space: pre;&quot;&gt;&#x9;&lt;/span&gt;&quot;pays&quot;&lt;/span&gt;&lt;span style=&quot;background-color: initial;&quot; class=&quot;hljs-punctuation&quot;&gt;:&lt;/span&gt;&lt;span style=&quot;background-color: initial;&quot;&gt; &lt;/span&gt;&lt;span style=&quot;background-color: initial;&quot; class=&quot;hljs-number&quot;&gt;&quot;France&quot;&lt;/span&gt;&lt;span style=&quot;background-color: initial;&quot; class=&quot;hljs-punctuation&quot;&gt;,&lt;/span&gt;&lt;/font&gt;&lt;/div&gt;&lt;/span&gt;&lt;div style=&quot;font-size: 15px;&quot;&gt;&lt;font style=&quot;font-size: 15px;&quot;&gt;&lt;span style=&quot;background-color: initial;&quot; class=&quot;hljs-attr&quot;&gt;&lt;span style=&quot;white-space: pre;&quot;&gt;&#x9;&lt;/span&gt;&quot;age&quot;&lt;/span&gt;&lt;span style=&quot;background-color: initial;&quot; class=&quot;hljs-punctuation&quot;&gt;:&lt;/span&gt;&lt;span style=&quot;background-color: initial;&quot;&gt; &lt;/span&gt;&lt;span style=&quot;background-color: initial;&quot; class=&quot;hljs-string&quot;&gt;&quot;34&quot;&lt;/span&gt;&lt;span style=&quot;background-color: initial;&quot; class=&quot;hljs-punctuation&quot;&gt;,&lt;/span&gt;&lt;/font&gt;&lt;/div&gt;    &lt;span style=&quot;font-size: 15px;&quot; class=&quot;hljs-attr&quot;&gt;&lt;div style=&quot;&quot;&gt;&lt;span style=&quot;background-color: initial; white-space-collapse: preserve;&quot;&gt;&#x9;&lt;/span&gt;&lt;span style=&quot;background-color: initial;&quot;&gt;&quot;tel&quot;; &quot;+33 66728193&quot;&lt;/span&gt;&lt;/div&gt;&lt;/span&gt;  &lt;span style=&quot;font-size: 15px;&quot; class=&quot;hljs-punctuation&quot;&gt;&lt;div style=&quot;&quot;&gt;&lt;span style=&quot;background-color: initial;&quot;&gt;&lt;font style=&quot;font-size: 15px;&quot;&gt;}&lt;/font&gt;&lt;/span&gt;&lt;/div&gt;&lt;/span&gt;" style="text;html=1;align=left;verticalAlign=middle;resizable=0;points=[];autosize=1;strokeColor=none;fillColor=none;" vertex="1" parent="1">
          <mxGeometry x="290" y="1030" width="200" height="180" as="geometry" />
        </mxCell>
        <mxCell id="HErzw3v6DC_TRmaPDKfs-14" value="&lt;div style=&quot;font-size: 15px;&quot;&gt;&lt;span style=&quot;background-color: initial;&quot;&gt;&lt;font style=&quot;font-size: 15px;&quot;&gt;// Document Stade&lt;/font&gt;&lt;/span&gt;&lt;/div&gt;&lt;div style=&quot;font-size: 15px;&quot;&gt;&lt;span style=&quot;background-color: initial;&quot;&gt;&lt;font style=&quot;font-size: 15px;&quot;&gt;{&lt;/font&gt;&lt;/span&gt;&lt;/div&gt;&lt;div style=&quot;font-size: 15px;&quot;&gt;&lt;font style=&quot;font-size: 15px;&quot;&gt;&lt;span style=&quot;background-color: initial;&quot; class=&quot;hljs-attr&quot;&gt;&lt;span style=&quot;white-space-collapse: preserve;&quot;&gt;&#x9;&lt;/span&gt;&quot;stade&lt;/span&gt;&lt;span style=&quot;background-color: initial;&quot; class=&quot;hljs-attr&quot;&gt;_id&quot;&lt;/span&gt;&lt;span style=&quot;background-color: initial;&quot; class=&quot;hljs-punctuation&quot;&gt;:&lt;/span&gt;&lt;span style=&quot;background-color: initial;&quot;&gt;&amp;nbsp;1&lt;/span&gt;&lt;span style=&quot;background-color: initial;&quot; class=&quot;hljs-punctuation&quot;&gt;,&lt;/span&gt;&lt;/font&gt;&lt;/div&gt;&lt;font style=&quot;font-size: 15px;&quot;&gt;&lt;span style=&quot;&quot; class=&quot;hljs-attr&quot;&gt;&lt;/span&gt;&lt;/font&gt;&lt;div style=&quot;font-size: 15px;&quot;&gt;&lt;font style=&quot;font-size: 15px;&quot;&gt;&lt;span style=&quot;background-color: initial; white-space-collapse: preserve;&quot;&gt;&#x9;&lt;/span&gt;&lt;span style=&quot;background-color: initial;&quot;&gt;&quot;nom&quot;: &quot;&lt;/span&gt;Stade Pierre-Mauroy&lt;span style=&quot;background-color: initial;&quot;&gt;&quot;,&lt;/span&gt;&lt;/font&gt;&lt;/div&gt;&lt;div style=&quot;font-size: 15px;&quot;&gt;&lt;font style=&quot;font-size: 15px;&quot;&gt;&lt;span style=&quot;background-color: initial;&quot; class=&quot;hljs-attr&quot;&gt;&lt;span style=&quot;white-space-collapse: preserve;&quot;&gt;&#x9;&lt;/span&gt;&quot;pays&quot;&lt;/span&gt;&lt;span style=&quot;background-color: initial;&quot; class=&quot;hljs-punctuation&quot;&gt;:&lt;/span&gt;&lt;span style=&quot;background-color: initial;&quot;&gt; &lt;/span&gt;&lt;span style=&quot;background-color: initial;&quot; class=&quot;hljs-number&quot;&gt;&quot;France&quot;&lt;/span&gt;&lt;span style=&quot;background-color: initial;&quot; class=&quot;hljs-punctuation&quot;&gt;,&lt;/span&gt;&lt;/font&gt;&lt;/div&gt;&lt;div style=&quot;font-size: 15px;&quot;&gt;&lt;span style=&quot;background-color: initial;&quot; class=&quot;hljs-punctuation&quot;&gt;&lt;font style=&quot;font-size: 15px;&quot;&gt;&lt;span style=&quot;white-space-collapse: preserve;&quot;&gt;&#x9;&lt;/span&gt;&quot;ville&quot;: &quot;Lille&quot;,&lt;/font&gt;&lt;/span&gt;&lt;/div&gt;&lt;div style=&quot;font-size: 15px;&quot;&gt;&lt;span style=&quot;background-color: initial;&quot; class=&quot;hljs-punctuation&quot;&gt;&lt;font style=&quot;font-size: 15px;&quot;&gt;&lt;span style=&quot;white-space: pre;&quot;&gt;&#x9;&lt;/span&gt;&quot;adresse&quot;: &quot;&lt;span style=&quot;background-color: initial;&quot;&gt;Stade Pierre-Mauroy, 140 Avenue Jean Stablinski, 59000 Lille&quot;,&lt;/span&gt;&lt;br&gt;&lt;/font&gt;&lt;/span&gt;&lt;/div&gt;&lt;div style=&quot;font-size: 15px;&quot;&gt;&lt;font style=&quot;font-size: 15px;&quot;&gt;&lt;span style=&quot;background-color: initial; white-space-collapse: preserve;&quot;&gt;&#x9;&lt;/span&gt;&lt;span style=&quot;background-color: initial;&quot;&gt;&quot;tel&quot;; &quot;+33 66728193&quot;&lt;/span&gt;&lt;/font&gt;&lt;/div&gt;  &lt;span style=&quot;font-size: 15px;&quot; class=&quot;hljs-punctuation&quot;&gt;&lt;div style=&quot;&quot;&gt;&lt;span style=&quot;background-color: initial;&quot;&gt;&lt;font style=&quot;font-size: 15px;&quot;&gt;}&lt;/font&gt;&lt;/span&gt;&lt;/div&gt;&lt;/span&gt;" style="text;html=1;align=left;verticalAlign=middle;resizable=0;points=[];autosize=1;strokeColor=none;fillColor=none;" vertex="1" parent="1">
          <mxGeometry x="290" y="1280" width="550" height="180" as="geometry" />
        </mxCell>
        <mxCell id="HErzw3v6DC_TRmaPDKfs-15" value="&lt;div style=&quot;font-size: 15px;&quot;&gt;&lt;span style=&quot;background-color: initial;&quot;&gt;&lt;font style=&quot;font-size: 15px;&quot;&gt;// Document Media&lt;/font&gt;&lt;/span&gt;&lt;/div&gt;&lt;div style=&quot;font-size: 15px;&quot;&gt;&lt;span style=&quot;background-color: initial;&quot;&gt;&lt;font style=&quot;font-size: 15px;&quot;&gt;{&lt;/font&gt;&lt;/span&gt;&lt;/div&gt;&lt;div style=&quot;font-size: 15px;&quot;&gt;&lt;font style=&quot;font-size: 15px;&quot;&gt;&lt;span style=&quot;background-color: initial;&quot; class=&quot;hljs-attr&quot;&gt;&lt;span style=&quot;white-space-collapse: preserve;&quot;&gt;&#x9;&lt;/span&gt;&quot;stade&lt;/span&gt;&lt;span style=&quot;background-color: initial;&quot; class=&quot;hljs-attr&quot;&gt;_id&quot;&lt;/span&gt;&lt;span style=&quot;background-color: initial;&quot; class=&quot;hljs-punctuation&quot;&gt;:&lt;/span&gt;&lt;span style=&quot;background-color: initial;&quot;&gt;&amp;nbsp;1&lt;/span&gt;&lt;span style=&quot;background-color: initial;&quot; class=&quot;hljs-punctuation&quot;&gt;,&lt;/span&gt;&lt;/font&gt;&lt;/div&gt;&lt;font style=&quot;font-size: 15px;&quot;&gt;&lt;span style=&quot;&quot; class=&quot;hljs-attr&quot;&gt;&lt;/span&gt;&lt;/font&gt;&lt;div style=&quot;font-size: 15px;&quot;&gt;&lt;font style=&quot;font-size: 15px;&quot;&gt;&lt;span style=&quot;background-color: initial; white-space-collapse: preserve;&quot;&gt;&#x9;&lt;/span&gt;&lt;span style=&quot;background-color: initial;&quot;&gt;&quot;nom&quot;: &quot;&lt;/span&gt;Stade Pierre-Mauroy&lt;span style=&quot;background-color: initial;&quot;&gt;&quot;,&lt;/span&gt;&lt;/font&gt;&lt;/div&gt;&lt;div style=&quot;font-size: 15px;&quot;&gt;&lt;font style=&quot;font-size: 15px;&quot;&gt;&lt;span style=&quot;background-color: initial;&quot; class=&quot;hljs-attr&quot;&gt;&lt;span style=&quot;white-space-collapse: preserve;&quot;&gt;&#x9;&lt;/span&gt;&quot;pays&quot;&lt;/span&gt;&lt;span style=&quot;background-color: initial;&quot; class=&quot;hljs-punctuation&quot;&gt;:&lt;/span&gt;&lt;span style=&quot;background-color: initial;&quot;&gt; &lt;/span&gt;&lt;span style=&quot;background-color: initial;&quot; class=&quot;hljs-number&quot;&gt;&quot;France&quot;&lt;/span&gt;&lt;span style=&quot;background-color: initial;&quot; class=&quot;hljs-punctuation&quot;&gt;,&lt;/span&gt;&lt;/font&gt;&lt;/div&gt;&lt;div style=&quot;font-size: 15px;&quot;&gt;&lt;span style=&quot;background-color: initial;&quot; class=&quot;hljs-punctuation&quot;&gt;&lt;font style=&quot;font-size: 15px;&quot;&gt;&lt;span style=&quot;white-space-collapse: preserve;&quot;&gt;&#x9;&lt;/span&gt;&quot;ville&quot;: &quot;Lille&quot;,&lt;/font&gt;&lt;/span&gt;&lt;/div&gt;&lt;div style=&quot;font-size: 15px;&quot;&gt;&lt;span style=&quot;background-color: initial;&quot; class=&quot;hljs-punctuation&quot;&gt;&lt;font style=&quot;font-size: 15px;&quot;&gt;&lt;span style=&quot;white-space: pre;&quot;&gt;&#x9;&lt;/span&gt;&quot;adresse&quot;: &quot;&lt;span style=&quot;background-color: initial;&quot;&gt;Stade Pierre-Mauroy, 140 Avenue Jean Stablinski, 59000 Lille&quot;,&lt;/span&gt;&lt;br&gt;&lt;/font&gt;&lt;/span&gt;&lt;/div&gt;&lt;div style=&quot;font-size: 15px;&quot;&gt;&lt;font style=&quot;font-size: 15px;&quot;&gt;&lt;span style=&quot;background-color: initial; white-space-collapse: preserve;&quot;&gt;&#x9;&lt;/span&gt;&lt;span style=&quot;background-color: initial;&quot;&gt;&quot;tel&quot;; &quot;+33 66728193&quot;&lt;/span&gt;&lt;/font&gt;&lt;/div&gt;  &lt;span style=&quot;font-size: 15px;&quot; class=&quot;hljs-punctuation&quot;&gt;&lt;div style=&quot;&quot;&gt;&lt;span style=&quot;background-color: initial;&quot;&gt;&lt;font style=&quot;font-size: 15px;&quot;&gt;}&lt;/font&gt;&lt;/span&gt;&lt;/div&gt;&lt;/span&gt;" style="text;html=1;align=left;verticalAlign=middle;resizable=0;points=[];autosize=1;strokeColor=none;fillColor=none;" vertex="1" parent="1">
          <mxGeometry x="277" y="1560" width="550" height="180" as="geometry" />
        </mxCell>
      </root>
    </mxGraphModel>
  </diagram>
</mxfile>
